<svg id="svg" version="1.1" width="2400" height="748" xmlns="http://www.w3.org/2000/svg" xmlns:xlink="http://www.w3.org/1999/xlink" style="display: block;"><g id="svgg"><path id="path0" d="M70.167 0.954 C 68.837 0.979,67.600 1.071,67.417 1.157 C 67.233 1.243,65.902 1.363,64.458 1.424 C 63.015 1.485,61.833 1.589,61.833 1.654 C 61.833 1.720,60.690 1.869,59.292 1.986 C 57.894 2.103,56.675 2.258,56.583 2.331 C 56.492 2.403,55.854 2.517,55.167 2.583 C 54.479 2.650,53.842 2.760,53.750 2.830 C 53.658 2.899,52.850 3.051,51.955 3.166 C 51.059 3.282,50.288 3.439,50.241 3.514 C 50.195 3.590,49.709 3.702,49.162 3.764 C 48.614 3.826,48.167 3.928,48.167 3.992 C 48.167 4.055,47.592 4.196,46.890 4.305 C 46.187 4.415,45.531 4.571,45.431 4.653 C 45.332 4.735,44.894 4.855,44.458 4.920 C 44.023 4.985,43.667 5.098,43.667 5.171 C 43.667 5.244,43.142 5.392,42.500 5.500 C 41.858 5.608,41.333 5.760,41.333 5.838 C 41.333 5.916,40.996 6.030,40.583 6.092 C 40.171 6.154,39.833 6.261,39.833 6.329 C 39.833 6.398,39.383 6.550,38.833 6.667 C 38.283 6.783,37.833 6.935,37.833 7.004 C 37.833 7.073,37.574 7.178,37.257 7.238 C 36.940 7.297,36.471 7.455,36.215 7.589 C 35.959 7.722,35.649 7.832,35.526 7.832 C 35.402 7.833,35.102 7.934,34.859 8.058 C 34.087 8.450,33.270 8.803,32.625 9.021 C 32.281 9.138,32.000 9.294,32.000 9.367 C 32.000 9.440,31.921 9.500,31.824 9.500 C 31.660 9.500,31.347 9.631,29.292 10.558 C 28.856 10.754,28.500 10.971,28.500 11.041 C 28.500 11.110,28.414 11.167,28.308 11.167 C 28.053 11.167,26.309 12.028,26.030 12.292 C 25.909 12.406,25.702 12.500,25.571 12.500 C 25.440 12.500,25.333 12.569,25.333 12.654 C 25.333 12.738,25.071 12.894,24.750 13.000 C 24.429 13.106,24.167 13.260,24.167 13.343 C 24.167 13.426,23.979 13.541,23.750 13.598 C 23.521 13.656,23.333 13.751,23.333 13.810 C 23.332 13.869,22.920 14.139,22.416 14.411 C 21.912 14.683,21.500 14.955,21.500 15.016 C 21.500 15.076,21.275 15.219,21.000 15.333 C 20.725 15.447,20.500 15.606,20.500 15.687 C 20.500 15.767,20.385 15.833,20.245 15.833 C 20.104 15.833,19.947 15.943,19.896 16.077 C 19.845 16.211,19.668 16.363,19.504 16.415 C 19.340 16.467,19.029 16.656,18.811 16.835 C 18.326 17.235,18.247 17.296,17.417 17.907 C 17.050 18.177,16.690 18.496,16.617 18.616 C 16.543 18.735,16.388 18.833,16.271 18.833 C 16.154 18.833,15.839 19.096,15.572 19.417 C 15.304 19.737,15.010 20.002,14.918 20.004 C 14.616 20.011,9.000 25.857,9.000 26.164 C 9.000 26.248,8.903 26.377,8.784 26.450 C 8.502 26.624,6.500 29.417,6.500 29.637 C 6.500 29.730,6.444 29.831,6.375 29.861 C 6.202 29.938,5.333 31.290,5.333 31.483 C 5.333 31.569,5.277 31.664,5.208 31.694 C 5.140 31.725,4.858 32.200,4.583 32.750 C 4.308 33.300,4.027 33.775,3.958 33.806 C 3.890 33.836,3.831 33.949,3.828 34.056 C 3.825 34.162,3.638 34.625,3.413 35.083 C 3.188 35.542,3.002 36.010,3.002 36.125 C 3.001 36.240,2.925 36.333,2.833 36.333 C 2.742 36.333,2.666 36.465,2.666 36.625 C 2.665 36.785,2.559 37.120,2.429 37.368 C 2.300 37.616,2.101 38.235,1.987 38.743 C 1.873 39.251,1.722 39.667,1.650 39.667 C 1.579 39.667,1.468 40.023,1.404 40.458 C 1.340 40.894,1.223 41.292,1.144 41.343 C 1.065 41.394,0.913 42.069,0.805 42.843 C 0.698 43.617,0.558 44.288,0.494 44.333 C -0.133 44.785,-0.132 59.546,0.496 60.000 C 0.559 60.046,0.704 60.757,0.817 61.581 C 0.931 62.404,1.084 63.117,1.158 63.164 C 1.232 63.211,1.346 63.569,1.411 63.958 C 1.476 64.348,1.582 64.667,1.647 64.667 C 1.712 64.667,1.865 65.118,1.987 65.670 C 2.110 66.222,2.267 66.709,2.336 66.752 C 2.405 66.795,2.512 67.093,2.572 67.415 C 2.632 67.737,2.738 68.000,2.806 68.000 C 2.875 68.000,3.021 68.338,3.131 68.750 C 3.242 69.163,3.401 69.500,3.486 69.500 C 3.571 69.500,3.690 69.725,3.750 70.000 C 3.810 70.275,3.917 70.500,3.987 70.500 C 4.057 70.500,4.204 70.800,4.314 71.167 C 4.423 71.533,4.579 71.833,4.660 71.833 C 4.741 71.833,4.856 72.058,4.917 72.333 C 4.977 72.608,5.096 72.833,5.180 72.833 C 5.264 72.833,5.333 72.910,5.333 73.004 C 5.333 73.155,6.112 74.452,6.332 74.667 C 6.379 74.712,6.524 74.956,6.653 75.208 C 6.783 75.460,6.952 75.667,7.028 75.667 C 7.104 75.667,7.167 75.782,7.167 75.922 C 7.167 76.062,7.279 76.220,7.417 76.273 C 7.554 76.326,7.667 76.455,7.667 76.559 C 7.667 76.664,7.836 76.951,8.042 77.196 C 8.248 77.442,8.642 77.924,8.917 78.268 C 9.192 78.612,9.529 79.013,9.667 79.159 C 9.804 79.306,10.254 79.832,10.667 80.327 C 11.580 81.425,13.321 83.163,14.325 83.980 C 14.733 84.312,15.266 84.790,15.510 85.042 C 15.753 85.294,16.041 85.500,16.148 85.500 C 16.256 85.500,16.388 85.615,16.442 85.756 C 16.496 85.897,16.738 86.118,16.979 86.246 C 17.220 86.375,17.616 86.654,17.859 86.865 C 18.103 87.077,18.467 87.362,18.668 87.500 C 18.869 87.638,19.401 88.013,19.850 88.333 C 21.000 89.155,21.830 89.667,22.012 89.667 C 22.097 89.667,22.167 89.733,22.167 89.813 C 22.167 89.894,22.410 90.058,22.708 90.178 C 23.006 90.299,23.310 90.495,23.383 90.615 C 23.457 90.735,23.625 90.833,23.758 90.833 C 23.891 90.833,24.000 90.894,24.000 90.969 C 24.000 91.043,24.262 91.207,24.583 91.333 C 24.904 91.459,25.167 91.617,25.167 91.685 C 25.167 91.752,25.392 91.856,25.667 91.917 C 25.942 91.977,26.167 92.093,26.167 92.173 C 26.167 92.254,26.467 92.410,26.833 92.520 C 27.200 92.630,27.500 92.777,27.500 92.846 C 27.500 92.916,27.725 93.023,28.000 93.083 C 28.275 93.144,28.500 93.259,28.500 93.340 C 28.500 93.421,28.800 93.577,29.167 93.686 C 29.533 93.796,29.833 93.943,29.833 94.013 C 29.833 94.083,30.058 94.190,30.333 94.250 C 30.608 94.310,30.833 94.423,30.833 94.500 C 30.833 94.577,31.077 94.692,31.375 94.756 C 31.673 94.820,32.104 94.973,32.333 95.096 C 33.072 95.492,34.309 96.000,34.537 96.000 C 34.659 96.000,34.911 96.106,35.096 96.236 C 35.282 96.366,35.711 96.525,36.050 96.588 C 36.389 96.652,36.667 96.758,36.667 96.825 C 36.667 96.892,37.079 97.039,37.583 97.152 C 38.087 97.265,38.500 97.417,38.500 97.490 C 38.500 97.564,38.869 97.673,39.321 97.733 C 39.772 97.792,40.166 97.897,40.196 97.965 C 40.265 98.124,43.316 99.000,43.800 99.000 C 44.002 99.000,44.167 99.070,44.167 99.156 C 44.167 99.243,44.522 99.366,44.956 99.431 C 45.389 99.496,45.971 99.643,46.247 99.756 C 46.524 99.870,47.219 100.016,47.792 100.081 C 48.365 100.146,48.833 100.259,48.833 100.333 C 48.833 100.406,49.359 100.519,50.001 100.583 C 50.643 100.648,51.204 100.759,51.249 100.831 C 51.293 100.903,52.099 101.057,53.040 101.173 C 53.980 101.289,54.825 101.440,54.917 101.509 C 55.008 101.577,55.758 101.687,56.583 101.753 C 57.408 101.819,58.158 101.932,58.250 102.004 C 58.342 102.076,59.729 102.223,61.333 102.330 C 62.938 102.437,64.385 102.597,64.551 102.686 C 64.717 102.775,67.135 102.894,69.926 102.951 C 72.717 103.007,75.000 103.116,75.000 103.193 C 75.000 103.270,77.662 103.333,80.917 103.333 L 86.833 103.333 86.833 98.833 L 86.833 94.333 80.708 94.316 C 72.784 94.294,63.282 93.765,63.000 93.330 C 62.954 93.260,62.317 93.148,61.583 93.081 C 60.850 93.014,60.175 92.901,60.083 92.829 C 59.992 92.757,59.185 92.604,58.292 92.487 C 57.398 92.371,56.667 92.221,56.667 92.153 C 56.667 92.086,56.273 91.978,55.792 91.914 C 55.310 91.849,54.842 91.738,54.750 91.667 C 54.658 91.597,54.040 91.443,53.375 91.326 C 52.710 91.209,52.167 91.059,52.167 90.992 C 52.167 90.926,51.831 90.821,51.421 90.759 C 51.010 90.698,50.637 90.587,50.592 90.514 C 50.547 90.441,50.058 90.285,49.505 90.168 C 48.952 90.050,48.500 89.896,48.500 89.825 C 48.500 89.754,48.200 89.645,47.834 89.583 C 47.468 89.522,47.131 89.411,47.086 89.338 C 47.041 89.264,46.722 89.153,46.377 89.090 C 46.032 89.027,45.599 88.878,45.414 88.760 C 45.230 88.641,44.836 88.490,44.539 88.425 C 44.243 88.360,44.000 88.238,44.000 88.153 C 44.000 88.069,43.861 88.000,43.691 88.000 C 43.522 88.000,43.030 87.813,42.599 87.583 C 42.168 87.354,41.707 87.167,41.575 87.167 C 41.442 87.167,41.333 87.104,41.333 87.026 C 41.333 86.949,41.015 86.791,40.625 86.675 C 40.235 86.558,39.879 86.414,39.833 86.355 C 39.700 86.182,37.933 85.333,37.706 85.333 C 37.593 85.333,37.500 85.276,37.500 85.206 C 37.500 85.078,37.229 84.915,36.184 84.414 C 35.873 84.264,35.511 84.035,35.380 83.904 C 35.250 83.774,35.036 83.667,34.905 83.667 C 34.774 83.667,34.667 83.601,34.667 83.520 C 34.667 83.440,34.423 83.275,34.125 83.155 C 33.827 83.035,33.523 82.838,33.450 82.718 C 33.377 82.598,33.214 82.500,33.089 82.500 C 32.964 82.500,32.836 82.444,32.806 82.375 C 32.775 82.306,32.412 82.025,32.000 81.750 C 31.587 81.476,31.212 81.213,31.167 81.167 C 31.121 81.120,30.746 80.858,30.333 80.583 C 29.921 80.309,29.523 79.990,29.450 79.875 C 29.377 79.761,29.253 79.667,29.176 79.667 C 29.022 79.667,28.382 79.150,27.162 78.042 C 26.733 77.652,26.340 77.333,26.289 77.333 C 26.154 77.333,23.000 74.158,23.000 74.022 C 23.000 73.959,22.869 73.791,22.708 73.648 C 22.548 73.505,22.154 73.063,21.833 72.665 C 21.512 72.267,21.132 71.818,20.987 71.666 C 20.843 71.515,20.676 71.266,20.617 71.112 C 20.559 70.959,20.440 70.833,20.355 70.833 C 20.269 70.833,20.121 70.608,20.025 70.333 C 19.929 70.058,19.772 69.833,19.675 69.833 C 19.579 69.833,19.500 69.725,19.500 69.592 C 19.500 69.459,19.406 69.290,19.291 69.217 C 19.177 69.143,18.971 68.858,18.833 68.583 C 18.696 68.308,18.546 68.046,18.500 68.000 C 18.329 67.829,17.989 67.218,17.481 66.167 C 17.193 65.571,16.910 65.046,16.851 65.000 C 16.691 64.874,15.833 62.696,15.833 62.413 C 15.833 62.278,15.768 62.167,15.687 62.167 C 15.545 62.167,15.160 60.926,14.783 59.250 C 14.680 58.792,14.546 58.379,14.485 58.333 C 14.370 58.246,14.076 56.232,13.827 53.833 C 13.746 53.054,13.725 51.629,13.781 50.667 C 13.899 48.613,13.897 48.632,14.026 48.417 C 14.081 48.325,14.179 47.669,14.244 46.958 C 14.309 46.248,14.425 45.667,14.502 45.667 C 14.579 45.667,14.694 45.253,14.757 44.748 C 14.821 44.242,14.933 43.791,15.008 43.745 C 15.083 43.699,15.239 43.231,15.356 42.705 C 15.472 42.180,15.665 41.651,15.784 41.530 C 15.903 41.409,16.000 41.127,16.000 40.905 C 16.000 40.682,16.075 40.500,16.167 40.500 C 16.258 40.500,16.333 40.416,16.333 40.314 C 16.333 40.064,17.883 36.932,18.042 36.861 C 18.110 36.831,18.167 36.735,18.167 36.649 C 18.167 36.457,19.036 35.105,19.208 35.028 C 19.277 34.997,19.333 34.878,19.333 34.762 C 19.333 34.646,19.483 34.416,19.667 34.250 C 19.850 34.084,20.000 33.845,20.000 33.719 C 20.000 33.593,20.112 33.446,20.250 33.394 C 20.387 33.341,20.501 33.212,20.503 33.107 C 20.504 33.002,20.692 32.740,20.920 32.524 C 21.147 32.308,21.333 32.067,21.333 31.987 C 21.333 31.719,26.064 26.843,27.304 25.833 C 27.698 25.512,28.161 25.133,28.333 24.990 C 28.505 24.846,28.849 24.584,29.097 24.406 C 29.345 24.229,29.666 23.952,29.811 23.792 C 29.956 23.631,30.158 23.500,30.261 23.500 C 30.364 23.500,30.584 23.350,30.750 23.167 C 30.916 22.983,31.153 22.833,31.276 22.833 C 31.399 22.833,31.500 22.756,31.500 22.663 C 31.500 22.569,31.688 22.420,31.917 22.333 C 32.146 22.246,32.333 22.098,32.333 22.004 C 32.333 21.910,32.440 21.833,32.571 21.833 C 32.702 21.833,32.909 21.737,33.030 21.619 C 33.151 21.502,33.625 21.189,34.083 20.925 C 34.542 20.661,34.954 20.397,35.000 20.338 C 35.046 20.279,35.327 20.132,35.625 20.012 C 35.923 19.891,36.167 19.735,36.167 19.665 C 36.167 19.594,36.354 19.489,36.583 19.432 C 36.812 19.374,37.000 19.253,37.000 19.163 C 37.000 19.074,37.086 19.000,37.192 19.000 C 37.445 19.000,39.234 18.118,39.306 17.958 C 39.336 17.890,39.435 17.833,39.524 17.833 C 39.748 17.833,41.563 16.974,41.668 16.819 C 41.715 16.750,41.978 16.638,42.252 16.571 C 42.526 16.504,43.011 16.310,43.331 16.141 C 43.650 15.972,44.044 15.833,44.206 15.833 C 44.368 15.833,44.500 15.764,44.500 15.680 C 44.500 15.596,44.744 15.474,45.042 15.411 C 45.340 15.347,45.658 15.236,45.750 15.165 C 45.842 15.093,46.254 14.939,46.667 14.821 C 47.079 14.704,47.492 14.553,47.583 14.486 C 47.675 14.418,48.031 14.311,48.375 14.246 C 48.719 14.182,49.000 14.075,49.000 14.008 C 49.000 13.941,49.431 13.791,49.958 13.675 C 50.485 13.558,50.992 13.405,51.083 13.334 C 51.175 13.263,51.569 13.152,51.958 13.088 C 52.348 13.023,52.667 12.914,52.667 12.846 C 52.667 12.777,53.304 12.625,54.083 12.510 C 54.862 12.394,55.500 12.238,55.500 12.163 C 55.500 12.088,55.987 11.974,56.583 11.911 C 57.179 11.847,57.667 11.740,57.667 11.674 C 57.667 11.608,58.435 11.458,59.375 11.340 C 60.315 11.222,61.158 11.068,61.250 10.998 C 61.342 10.928,62.054 10.816,62.833 10.750 C 63.612 10.684,64.325 10.570,64.417 10.498 C 64.508 10.425,66.008 10.281,67.750 10.176 C 69.492 10.072,71.292 9.944,71.750 9.892 C 72.208 9.840,75.790 9.766,79.708 9.728 L 86.833 9.660 86.833 5.247 L 86.833 0.833 79.708 0.870 C 75.790 0.890,71.496 0.928,70.167 0.954 M192.042 44.943 C 191.744 44.986,191.500 45.077,191.500 45.146 C 191.500 45.214,191.125 45.366,190.667 45.484 C 190.208 45.601,189.833 45.766,189.833 45.849 C 189.833 45.932,189.746 46.000,189.639 46.000 C 189.441 46.000,189.275 46.134,188.454 46.954 C 187.672 47.737,187.547 47.903,187.416 48.326 C 187.346 48.550,187.187 48.837,187.061 48.962 C 186.936 49.088,186.833 49.366,186.833 49.581 C 186.833 49.796,186.743 50.002,186.632 50.039 C 186.361 50.130,186.338 53.685,186.606 54.016 C 186.710 54.145,186.847 54.494,186.911 54.792 C 186.974 55.090,187.077 55.333,187.139 55.333 C 187.201 55.333,187.345 55.543,187.458 55.799 C 187.722 56.395,189.115 57.833,189.428 57.833 C 189.559 57.833,189.667 57.905,189.667 57.992 C 189.667 59.296,195.797 59.269,197.578 57.957 C 198.353 57.386,199.167 56.585,199.167 56.391 C 199.167 56.262,199.272 56.116,199.402 56.066 C 199.531 56.016,199.685 55.785,199.743 55.551 C 199.802 55.318,199.949 55.027,200.071 54.905 C 200.367 54.609,200.717 52.140,200.585 51.274 C 200.376 49.893,200.110 48.833,199.973 48.833 C 199.896 48.833,199.833 48.736,199.833 48.617 C 199.833 47.787,196.961 45.333,195.989 45.333 C 195.827 45.333,195.669 45.259,195.639 45.168 C 195.578 44.986,192.904 44.819,192.042 44.943 M0.000 121.333 L 0.000 124.667 189.167 124.667 L 378.333 124.667 378.333 121.333 L 378.333 118.000 189.167 118.000 L 0.000 118.000 0.000 121.333 " stroke="none" fill="#ce1443" fill-rule="evenodd"></path><path id="path1" d="M13.875 49.417 C 13.877 49.783,13.911 49.914,13.951 49.706 C 13.991 49.499,13.990 49.199,13.948 49.040 C 13.906 48.880,13.874 49.050,13.875 49.417 M13.875 54.583 C 13.877 54.950,13.911 55.080,13.951 54.873 C 13.991 54.666,13.990 54.366,13.948 54.206 C 13.906 54.047,13.874 54.217,13.875 54.583 " stroke="none" fill="#ff0000" fill-rule="evenodd"></path><path id="path2" d="M389.125 6.112 C 388.781 6.153,388.500 6.257,388.500 6.343 C 388.500 6.430,388.354 6.500,388.175 6.500 C 387.815 6.500,387.023 6.818,386.727 7.081 C 386.622 7.174,386.328 7.400,386.072 7.583 C 385.407 8.059,384.180 9.362,384.071 9.707 C 384.019 9.868,383.920 10.000,383.849 10.000 C 383.778 10.000,383.620 10.319,383.497 10.708 C 383.374 11.098,383.193 11.522,383.095 11.651 C 382.850 11.973,382.854 16.805,383.099 16.964 C 383.200 17.030,383.336 17.304,383.402 17.573 C 383.468 17.843,383.667 18.267,383.844 18.516 C 384.022 18.764,384.167 19.015,384.167 19.072 C 384.167 19.269,386.187 21.151,386.509 21.253 C 386.687 21.310,386.833 21.422,386.833 21.504 C 386.833 21.585,387.096 21.701,387.417 21.761 C 387.738 21.821,388.000 21.929,388.000 22.001 C 388.000 22.904,394.200 22.470,395.167 21.500 C 395.212 21.454,395.475 21.304,395.750 21.166 C 396.443 20.820,397.722 19.522,398.009 18.873 C 398.141 18.576,398.297 18.333,398.356 18.333 C 398.415 18.333,398.515 18.128,398.578 17.877 C 398.642 17.626,398.766 17.375,398.854 17.320 C 399.395 16.986,399.392 11.512,398.850 11.177 C 398.764 11.124,398.642 10.874,398.578 10.623 C 398.515 10.372,398.415 10.167,398.356 10.167 C 398.297 10.167,398.145 9.934,398.019 9.649 C 397.747 9.034,396.421 7.667,396.097 7.667 C 395.971 7.667,395.826 7.554,395.773 7.417 C 395.720 7.279,395.562 7.167,395.422 7.167 C 395.282 7.167,395.167 7.107,395.167 7.033 C 395.167 6.880,394.189 6.500,393.794 6.500 C 393.647 6.500,393.499 6.412,393.463 6.305 C 393.395 6.102,390.338 5.966,389.125 6.112 M392.889 7.856 C 393.408 7.961,393.833 8.111,393.833 8.190 C 393.833 8.269,393.913 8.333,394.011 8.333 C 394.247 8.333,395.181 9.054,395.975 9.848 C 396.636 10.509,397.500 12.188,397.500 12.813 C 397.500 13.007,397.575 13.167,397.667 13.167 C 397.761 13.167,397.833 13.639,397.833 14.250 C 397.833 14.861,397.761 15.333,397.667 15.333 C 397.575 15.333,397.500 15.540,397.499 15.792 C 397.499 16.044,397.358 16.480,397.187 16.761 C 397.015 17.043,396.823 17.437,396.759 17.637 C 396.602 18.131,394.964 19.748,394.339 20.024 C 394.061 20.147,393.833 20.302,393.833 20.368 C 393.833 20.434,393.458 20.538,393.000 20.599 C 392.542 20.660,392.167 20.775,392.167 20.855 C 392.167 20.935,391.642 21.000,391.000 21.000 C 390.358 21.000,389.833 20.934,389.833 20.854 C 389.833 20.774,389.591 20.660,389.296 20.601 C 388.590 20.460,387.286 19.833,387.117 19.554 C 387.043 19.432,386.912 19.333,386.825 19.333 C 386.638 19.333,386.000 18.722,386.000 18.542 C 386.000 18.473,385.812 18.199,385.583 17.932 C 385.354 17.666,385.167 17.347,385.167 17.224 C 385.167 17.101,385.101 17.000,385.020 17.000 C 384.295 17.000,384.364 12.112,385.099 11.377 C 385.228 11.248,385.333 11.036,385.333 10.905 C 385.333 10.774,385.396 10.667,385.472 10.667 C 385.548 10.667,385.717 10.463,385.847 10.213 C 386.116 9.698,386.601 9.167,386.802 9.167 C 386.876 9.167,387.085 9.035,387.265 8.875 C 388.473 7.801,390.650 7.407,392.889 7.856 M101.375 56.042 L 101.417 103.250 106.292 103.294 L 111.167 103.338 111.167 87.853 L 111.167 72.368 112.625 72.164 C 113.427 72.052,114.158 71.904,114.250 71.834 C 114.342 71.765,114.848 71.656,115.375 71.592 C 115.902 71.528,116.333 71.414,116.333 71.339 C 116.333 71.264,116.792 71.122,117.352 71.023 C 117.912 70.924,118.456 70.773,118.560 70.687 C 118.665 70.600,119.050 70.475,119.417 70.408 C 119.783 70.340,120.121 70.240,120.167 70.184 C 120.260 70.071,121.585 69.569,122.542 69.284 C 122.885 69.182,123.167 69.044,123.167 68.979 C 123.167 68.913,123.392 68.810,123.667 68.750 C 123.942 68.690,124.167 68.572,124.167 68.489 C 124.167 68.406,124.504 68.253,124.917 68.149 C 125.329 68.045,125.667 67.894,125.667 67.814 C 125.667 67.733,125.768 67.667,125.891 67.667 C 126.015 67.667,126.283 67.521,126.488 67.344 C 126.693 67.166,127.080 66.972,127.347 66.914 C 127.614 66.855,127.833 66.738,127.833 66.653 C 127.833 66.569,127.942 66.500,128.075 66.500 C 128.208 66.500,128.377 66.406,128.450 66.291 C 128.523 66.177,128.808 65.970,129.083 65.833 C 129.610 65.570,129.678 65.524,130.317 64.997 C 130.537 64.815,130.821 64.667,130.947 64.667 C 131.074 64.667,131.220 64.554,131.273 64.417 C 131.326 64.279,131.470 64.167,131.593 64.167 C 131.716 64.167,131.877 64.065,131.950 63.941 C 132.023 63.817,132.269 63.618,132.496 63.498 C 132.724 63.379,133.097 63.068,133.325 62.807 C 133.554 62.547,133.810 62.333,133.894 62.333 C 134.077 62.333,138.165 58.235,138.170 58.047 C 138.171 57.975,138.359 57.740,138.586 57.524 C 138.814 57.308,139.000 57.067,139.000 56.988 C 139.000 56.909,139.224 56.616,139.498 56.336 C 139.771 56.056,140.041 55.646,140.096 55.425 C 140.151 55.205,140.302 54.984,140.432 54.934 C 140.561 54.884,140.667 54.729,140.667 54.589 C 140.667 54.448,140.738 54.333,140.824 54.333 C 140.971 54.333,141.171 54.028,141.697 53.000 C 141.814 52.771,141.957 52.546,142.014 52.500 C 142.071 52.454,142.210 52.135,142.322 51.792 C 142.434 51.448,142.589 51.167,142.666 51.167 C 142.744 51.167,142.856 50.942,142.917 50.667 C 142.977 50.392,143.090 50.167,143.168 50.167 C 143.246 50.167,143.402 49.754,143.515 49.250 C 143.627 48.746,143.776 48.333,143.845 48.333 C 143.914 48.333,144.024 48.015,144.089 47.625 C 144.154 47.235,144.277 46.873,144.361 46.819 C 144.446 46.765,144.602 46.034,144.708 45.194 C 144.814 44.354,144.961 43.667,145.034 43.667 C 145.107 43.667,145.167 42.017,145.167 40.000 C 145.167 37.667,145.106 36.333,145.000 36.333 C 144.908 36.333,144.833 36.066,144.833 35.740 C 144.833 34.784,144.457 32.000,144.328 32.000 C 144.263 32.000,144.160 31.625,144.099 31.167 C 144.038 30.708,143.925 30.333,143.846 30.333 C 143.768 30.333,143.612 29.846,143.500 29.250 C 143.388 28.654,143.232 28.167,143.155 28.167 C 143.078 28.167,142.966 27.904,142.906 27.583 C 142.845 27.262,142.742 27.000,142.675 27.000 C 142.608 27.000,142.454 26.700,142.333 26.333 C 142.212 25.967,142.056 25.667,141.987 25.667 C 141.917 25.667,141.810 25.442,141.750 25.167 C 141.690 24.892,141.585 24.667,141.518 24.667 C 141.451 24.667,141.294 24.407,141.169 24.090 C 141.045 23.773,140.844 23.476,140.722 23.429 C 140.600 23.382,140.500 23.229,140.500 23.089 C 140.500 22.948,140.437 22.833,140.360 22.833 C 140.283 22.833,140.139 22.655,140.039 22.436 C 139.826 21.967,139.430 21.516,137.384 19.411 C 136.541 18.543,135.785 17.833,135.705 17.833 C 135.624 17.833,135.382 17.646,135.167 17.417 C 134.951 17.188,134.676 17.000,134.554 17.000 C 134.433 17.000,134.333 16.923,134.333 16.829 C 134.333 16.735,134.146 16.587,133.917 16.500 C 133.688 16.413,133.500 16.273,133.500 16.189 C 133.500 16.105,133.313 15.989,133.083 15.932 C 132.854 15.874,132.667 15.763,132.667 15.684 C 132.667 15.605,132.423 15.441,132.125 15.319 C 131.827 15.197,131.484 15.000,131.363 14.882 C 131.242 14.764,131.036 14.667,130.905 14.667 C 130.774 14.667,130.667 14.601,130.667 14.522 C 130.667 14.442,130.329 14.282,129.917 14.167 C 129.504 14.051,129.167 13.893,129.167 13.815 C 129.167 13.737,128.979 13.626,128.750 13.568 C 128.521 13.511,128.333 13.403,128.333 13.329 C 128.333 13.254,128.091 13.140,127.794 13.075 C 127.498 13.010,127.104 12.859,126.919 12.740 C 126.734 12.622,126.301 12.473,125.956 12.410 C 125.612 12.347,125.293 12.236,125.247 12.162 C 125.202 12.089,124.865 11.978,124.499 11.917 C 124.133 11.855,123.833 11.741,123.833 11.664 C 123.833 11.587,123.271 11.433,122.583 11.323 C 121.896 11.212,121.333 11.064,121.333 10.993 C 121.333 10.923,120.883 10.814,120.333 10.750 C 119.783 10.686,119.333 10.576,119.333 10.506 C 119.333 10.435,118.508 10.279,117.500 10.159 C 116.492 10.039,115.667 9.887,115.667 9.820 C 115.667 9.753,114.860 9.645,113.875 9.580 C 112.890 9.514,112.005 9.398,111.910 9.322 C 111.783 9.221,103.874 8.849,101.541 8.835 C 101.375 8.834,101.341 18.328,101.375 56.042 M159.000 56.083 L 159.000 103.333 164.000 103.333 L 169.000 103.333 169.000 56.083 L 169.000 8.833 164.000 8.833 L 159.000 8.833 159.000 56.083 M217.031 37.278 C 217.073 59.848,217.126 65.737,217.292 65.792 C 217.416 65.833,217.500 66.155,217.500 66.591 C 217.500 67.652,217.858 70.722,218.004 70.917 C 218.073 71.008,218.183 71.552,218.248 72.125 C 218.313 72.698,218.425 73.167,218.496 73.167 C 218.567 73.167,218.719 73.767,218.833 74.500 C 218.947 75.233,219.100 75.833,219.171 75.833 C 219.243 75.833,219.354 76.208,219.417 76.667 C 219.480 77.125,219.595 77.500,219.672 77.500 C 219.750 77.500,219.864 77.841,219.927 78.258 C 219.989 78.675,220.135 79.111,220.250 79.226 C 220.365 79.342,220.513 79.750,220.578 80.135 C 220.643 80.519,220.749 80.833,220.815 80.833 C 220.880 80.833,221.029 81.115,221.145 81.458 C 221.428 82.291,221.887 83.237,222.042 83.306 C 222.110 83.336,222.167 83.437,222.167 83.531 C 222.167 83.803,223.058 85.667,223.188 85.667 C 223.253 85.667,223.357 85.897,223.419 86.178 C 223.481 86.459,223.632 86.728,223.756 86.775 C 223.879 86.822,224.028 87.080,224.086 87.347 C 224.145 87.615,224.265 87.833,224.352 87.833 C 224.439 87.833,224.559 87.965,224.619 88.125 C 224.756 88.493,225.376 89.399,225.542 89.472 C 225.610 89.503,225.667 89.602,225.667 89.692 C 225.667 89.831,226.058 90.410,226.750 91.296 C 226.842 91.414,227.160 91.771,227.458 92.091 C 227.756 92.411,228.000 92.718,228.000 92.773 C 228.000 92.908,231.767 96.667,231.903 96.667 C 231.962 96.667,232.231 96.892,232.500 97.167 C 232.769 97.442,233.050 97.667,233.124 97.667 C 233.198 97.667,233.388 97.817,233.545 98.000 C 233.702 98.183,233.943 98.333,234.082 98.333 C 234.220 98.333,234.333 98.410,234.333 98.504 C 234.333 98.598,234.521 98.746,234.750 98.833 C 234.979 98.920,235.167 99.063,235.167 99.149 C 235.167 99.236,235.385 99.355,235.653 99.414 C 235.920 99.472,236.178 99.621,236.225 99.744 C 236.272 99.868,236.541 100.019,236.822 100.081 C 237.103 100.143,237.333 100.262,237.333 100.347 C 237.333 100.431,237.412 100.500,237.509 100.500 C 237.606 100.500,238.018 100.652,238.426 100.838 C 238.833 101.023,239.392 101.220,239.667 101.275 C 239.942 101.330,240.167 101.435,240.167 101.508 C 240.167 101.581,240.410 101.692,240.708 101.756 C 241.006 101.820,241.332 101.937,241.431 102.017 C 241.531 102.097,242.206 102.253,242.931 102.363 C 243.657 102.473,244.304 102.643,244.369 102.740 C 244.447 102.856,245.862 102.917,248.500 102.917 C 251.138 102.917,252.553 102.856,252.631 102.740 C 252.696 102.643,253.346 102.473,254.075 102.362 C 254.804 102.251,255.442 102.099,255.492 102.023 C 255.542 101.947,255.877 101.838,256.237 101.782 C 256.596 101.725,256.933 101.616,256.987 101.539 C 257.040 101.463,257.410 101.305,257.810 101.188 C 258.210 101.071,258.997 100.726,259.560 100.422 C 260.123 100.117,260.846 99.729,261.167 99.559 C 261.487 99.389,261.787 99.212,261.833 99.167 C 262.080 98.920,263.010 98.333,263.154 98.333 C 263.246 98.333,263.402 98.183,263.500 98.000 C 263.598 97.817,263.761 97.667,263.863 97.667 C 263.964 97.667,264.262 97.442,264.525 97.167 C 264.788 96.892,265.068 96.667,265.148 96.667 C 265.325 96.667,269.167 92.860,269.167 92.684 C 269.167 92.615,269.354 92.382,269.583 92.167 C 269.813 91.951,270.003 91.695,270.007 91.596 C 270.011 91.497,270.236 91.233,270.507 91.008 C 270.778 90.783,271.000 90.536,271.000 90.459 C 271.000 90.313,271.600 89.420,271.958 89.035 C 272.073 88.911,272.211 88.633,272.265 88.417 C 272.319 88.201,272.469 87.984,272.598 87.934 C 272.728 87.884,272.833 87.729,272.833 87.589 C 272.833 87.448,272.900 87.333,272.982 87.333 C 273.064 87.333,273.176 87.151,273.232 86.928 C 273.288 86.706,273.428 86.424,273.542 86.303 C 273.817 86.014,274.667 84.303,274.667 84.039 C 274.667 83.926,274.734 83.833,274.815 83.833 C 274.897 83.833,275.013 83.637,275.073 83.397 C 275.134 83.156,275.292 82.851,275.425 82.718 C 275.558 82.585,275.667 82.299,275.667 82.083 C 275.667 81.867,275.779 81.578,275.917 81.440 C 276.054 81.303,276.167 81.052,276.167 80.882 C 276.167 80.713,276.270 80.426,276.396 80.245 C 276.522 80.065,276.722 79.485,276.839 78.958 C 276.957 78.431,277.110 78.000,277.179 78.000 C 277.248 78.000,277.355 77.700,277.417 77.334 C 277.478 76.968,277.593 76.629,277.671 76.581 C 277.749 76.532,277.907 75.932,278.022 75.247 C 278.137 74.561,278.287 74.000,278.354 74.000 C 278.421 74.000,278.528 73.587,278.591 73.083 C 278.654 72.579,278.757 72.167,278.821 72.167 C 278.885 72.167,279.038 71.248,279.162 70.125 C 279.285 69.002,279.450 68.041,279.529 67.989 C 279.607 67.936,279.720 66.340,279.779 64.440 C 279.838 62.541,279.950 60.948,280.027 60.900 C 280.234 60.772,280.207 26.500,280.000 26.500 C 279.891 26.500,279.833 23.444,279.833 17.667 L 279.833 8.833 274.839 8.833 L 269.844 8.833 269.797 37.589 C 269.762 58.746,269.700 66.377,269.562 66.464 C 269.458 66.530,269.319 67.202,269.253 67.958 C 269.186 68.715,269.079 69.333,269.015 69.333 C 268.950 69.333,268.802 70.008,268.685 70.833 C 268.568 71.658,268.411 72.333,268.335 72.333 C 268.260 72.333,268.146 72.708,268.083 73.167 C 268.020 73.625,267.907 74.000,267.832 74.000 C 267.757 74.000,267.645 74.319,267.582 74.708 C 267.519 75.098,267.373 75.568,267.256 75.752 C 267.139 75.937,266.987 76.350,266.918 76.669 C 266.848 76.989,266.745 77.287,266.687 77.333 C 266.489 77.492,265.667 79.285,265.667 79.558 C 265.667 79.710,265.593 79.833,265.503 79.833 C 265.413 79.833,265.293 80.018,265.237 80.243 C 265.180 80.469,265.034 80.736,264.911 80.838 C 264.788 80.940,264.641 81.237,264.584 81.498 C 264.527 81.759,264.372 82.014,264.240 82.064 C 264.108 82.115,264.000 82.271,264.000 82.411 C 264.000 82.552,263.934 82.667,263.854 82.667 C 263.773 82.667,263.614 82.892,263.500 83.167 C 263.386 83.442,263.227 83.667,263.146 83.667 C 263.066 83.667,263.000 83.782,263.000 83.922 C 263.000 84.062,262.887 84.220,262.750 84.273 C 262.612 84.326,262.500 84.459,262.500 84.568 C 262.500 84.885,259.511 88.076,258.592 88.740 C 258.200 89.023,257.967 89.207,257.250 89.798 C 257.158 89.873,256.840 90.043,256.542 90.175 C 256.244 90.307,256.000 90.463,256.000 90.523 C 256.000 90.582,255.813 90.678,255.583 90.735 C 255.354 90.793,255.167 90.904,255.167 90.982 C 255.167 91.060,254.829 91.218,254.417 91.333 C 254.004 91.449,253.667 91.602,253.667 91.674 C 253.667 91.745,253.348 91.857,252.958 91.921 C 252.569 91.985,252.169 92.102,252.071 92.181 C 251.445 92.685,245.316 92.676,245.003 92.172 C 244.955 92.095,244.560 91.979,244.125 91.914 C 243.690 91.849,243.333 91.741,243.333 91.674 C 243.333 91.608,243.033 91.454,242.667 91.333 C 242.300 91.212,242.000 91.056,242.000 90.987 C 242.000 90.917,241.775 90.810,241.500 90.750 C 241.225 90.690,241.000 90.585,241.000 90.518 C 241.000 90.451,240.741 90.294,240.424 90.169 C 240.107 90.045,239.809 89.844,239.762 89.722 C 239.715 89.600,239.597 89.500,239.500 89.500 C 239.402 89.500,239.102 89.275,238.833 89.000 C 238.565 88.725,238.286 88.499,238.214 88.497 C 238.142 88.496,237.907 88.308,237.691 88.080 C 237.475 87.853,237.244 87.667,237.177 87.667 C 237.111 87.667,236.960 87.487,236.843 87.268 C 236.726 87.049,236.459 86.779,236.250 86.667 C 236.041 86.555,235.768 86.265,235.643 86.023 C 235.519 85.781,235.210 85.398,234.958 85.171 C 234.706 84.945,234.500 84.661,234.500 84.541 C 234.500 84.421,234.387 84.280,234.250 84.227 C 234.112 84.174,234.000 84.042,234.000 83.933 C 234.000 83.824,233.888 83.588,233.750 83.409 C 233.252 82.760,232.667 81.815,232.667 81.659 C 232.667 81.572,232.607 81.500,232.533 81.500 C 232.460 81.500,232.305 81.238,232.189 80.917 C 232.073 80.596,231.914 80.333,231.836 80.333 C 231.757 80.333,231.644 80.108,231.583 79.833 C 231.523 79.558,231.421 79.333,231.356 79.333 C 231.292 79.333,231.140 78.996,231.018 78.583 C 230.896 78.171,230.733 77.833,230.656 77.833 C 230.578 77.833,230.466 77.571,230.406 77.250 C 230.345 76.929,230.237 76.667,230.165 76.667 C 230.092 76.667,229.941 76.273,229.828 75.792 C 229.715 75.310,229.561 74.838,229.485 74.742 C 229.410 74.646,229.298 74.252,229.236 73.867 C 229.174 73.482,229.071 73.167,229.005 73.167 C 228.940 73.167,228.791 72.623,228.674 71.958 C 228.557 71.294,228.402 70.675,228.330 70.583 C 228.258 70.492,228.146 69.910,228.080 69.292 C 228.015 68.673,227.907 68.167,227.840 68.167 C 227.366 68.167,227.270 63.322,227.212 36.292 L 227.154 8.833 222.066 8.833 L 216.979 8.833 217.031 37.278 M365.083 9.069 C 362.975 9.168,361.175 9.298,361.083 9.357 C 360.992 9.415,359.210 9.518,357.125 9.585 C 355.040 9.653,353.333 9.762,353.333 9.829 C 353.333 9.895,350.781 10.048,347.661 10.167 C 344.541 10.286,341.949 10.448,341.901 10.525 C 341.853 10.603,341.155 10.667,340.349 10.667 C 339.544 10.667,338.198 10.715,337.359 10.775 L 335.833 10.883 335.833 56.251 L 335.833 101.618 337.108 101.726 C 337.810 101.785,339.043 101.833,339.849 101.833 C 340.654 101.833,341.352 101.896,341.399 101.972 C 341.447 102.049,344.264 102.211,347.659 102.333 C 351.055 102.455,353.833 102.609,353.833 102.675 C 353.833 102.742,355.671 102.851,357.917 102.918 C 360.162 102.986,362.000 103.095,362.000 103.161 C 362.000 103.227,363.444 103.330,365.208 103.391 C 366.973 103.452,369.560 103.550,370.958 103.610 L 373.500 103.718 373.500 103.109 C 373.500 102.774,373.434 102.500,373.354 102.500 C 373.273 102.500,373.152 100.347,373.084 97.716 C 373.005 94.683,372.892 92.822,372.773 92.633 C 372.596 92.349,371.897 92.333,359.210 92.333 L 345.833 92.333 345.833 76.060 L 345.833 59.786 354.375 59.895 C 359.073 59.955,364.173 60.051,365.708 60.109 L 368.500 60.213 368.500 54.842 L 368.500 49.471 359.542 49.592 C 354.615 49.658,350.558 49.777,350.528 49.856 C 350.497 49.935,349.428 50.000,348.153 50.000 L 345.833 50.000 345.833 35.000 L 345.833 20.000 358.690 20.000 L 371.547 20.000 371.442 17.875 C 371.384 16.706,371.287 14.194,371.227 12.292 L 371.117 8.833 370.017 8.860 C 369.412 8.875,367.192 8.969,365.083 9.069 M318.125 9.115 C 317.965 9.157,317.833 9.252,317.833 9.327 C 317.833 9.402,317.571 9.512,317.250 9.572 C 316.929 9.633,316.667 9.739,316.667 9.809 C 316.667 9.880,316.292 10.033,315.833 10.151 C 315.375 10.268,315.000 10.429,315.000 10.508 C 315.000 10.587,314.737 10.701,314.417 10.761 C 314.096 10.821,313.833 10.937,313.833 11.019 C 313.833 11.100,313.741 11.167,313.627 11.167 C 313.366 11.167,311.602 12.042,311.528 12.208 C 311.497 12.277,311.386 12.333,311.280 12.333 C 311.058 12.333,309.292 13.191,309.165 13.360 C 309.118 13.423,308.880 13.524,308.635 13.585 C 308.391 13.647,308.153 13.795,308.107 13.916 C 308.060 14.037,307.792 14.186,307.511 14.248 C 307.230 14.309,307.000 14.429,307.000 14.513 C 307.000 14.598,306.885 14.667,306.745 14.667 C 306.604 14.667,306.448 14.775,306.398 14.906 C 306.347 15.038,306.082 15.195,305.808 15.256 C 305.535 15.316,305.270 15.470,305.221 15.599 C 305.171 15.728,305.024 15.833,304.894 15.833 C 304.763 15.833,304.615 15.941,304.564 16.073 C 304.514 16.205,304.248 16.362,303.975 16.422 C 303.701 16.482,303.437 16.637,303.388 16.766 C 303.338 16.895,303.208 17.000,303.099 17.000 C 302.901 17.000,302.377 17.353,301.842 17.846 C 301.686 17.991,301.432 18.157,301.279 18.216 C 301.126 18.275,301.000 18.392,301.000 18.477 C 301.000 18.561,300.815 18.677,300.588 18.734 C 300.362 18.791,300.096 18.986,299.999 19.169 C 299.901 19.351,299.739 19.500,299.637 19.500 C 299.536 19.500,299.238 19.725,298.975 20.000 C 298.712 20.275,298.428 20.500,298.344 20.500 C 298.260 20.500,297.754 20.939,297.220 21.476 C 296.687 22.012,296.044 22.584,295.792 22.745 C 295.540 22.906,295.333 23.111,295.333 23.200 C 295.333 23.290,294.921 23.785,294.417 24.301 C 293.912 24.818,293.500 25.298,293.500 25.369 C 293.500 25.439,293.288 25.704,293.029 25.957 C 292.769 26.210,292.509 26.548,292.450 26.708 C 292.392 26.869,292.275 27.000,292.191 27.000 C 292.107 27.000,291.996 27.131,291.943 27.292 C 291.891 27.452,291.655 27.883,291.420 28.250 C 291.185 28.617,290.903 29.123,290.793 29.375 C 290.683 29.627,290.542 29.833,290.479 29.833 C 290.416 29.833,290.268 30.208,290.151 30.667 C 290.033 31.125,289.882 31.500,289.815 31.500 C 289.748 31.500,289.640 31.744,289.576 32.042 C 289.511 32.340,289.390 32.627,289.306 32.681 C 289.222 32.734,289.065 33.428,288.956 34.222 C 288.848 35.017,288.701 35.667,288.630 35.667 C 288.558 35.667,288.500 36.829,288.500 38.250 C 288.500 39.671,288.558 40.833,288.630 40.833 C 288.701 40.833,288.848 41.483,288.956 42.278 C 289.065 43.072,289.222 43.766,289.306 43.819 C 289.390 43.873,289.511 44.160,289.576 44.458 C 289.640 44.756,289.748 45.000,289.815 45.000 C 289.882 45.000,290.033 45.375,290.151 45.833 C 290.268 46.292,290.432 46.667,290.515 46.667 C 290.599 46.667,290.667 46.760,290.668 46.875 C 290.669 46.990,290.969 47.555,291.335 48.132 C 291.701 48.708,292.000 49.244,292.000 49.322 C 292.000 49.400,292.112 49.508,292.250 49.560 C 292.387 49.613,292.500 49.736,292.500 49.834 C 292.500 49.931,292.725 50.231,293.000 50.500 C 293.275 50.769,293.501 51.048,293.503 51.119 C 293.504 51.191,293.692 51.427,293.920 51.642 C 294.147 51.858,294.333 52.089,294.333 52.156 C 294.333 52.223,294.521 52.377,294.750 52.500 C 294.979 52.623,295.167 52.824,295.167 52.948 C 295.167 53.185,295.982 54.022,296.760 54.583 C 297.286 54.963,297.602 55.261,297.788 55.551 C 297.859 55.661,298.217 55.972,298.583 56.242 C 298.950 56.511,299.310 56.830,299.383 56.949 C 299.457 57.069,299.625 57.167,299.758 57.167 C 299.891 57.167,300.000 57.243,300.000 57.337 C 300.000 57.431,300.203 57.599,300.450 57.712 C 300.698 57.825,301.063 58.067,301.262 58.250 C 301.851 58.793,302.522 59.333,302.609 59.333 C 302.731 59.333,303.909 60.233,303.972 60.375 C 304.003 60.444,304.102 60.500,304.192 60.500 C 304.375 60.500,305.553 61.347,305.639 61.542 C 305.669 61.610,305.768 61.667,305.858 61.667 C 306.032 61.667,307.247 62.530,307.911 63.125 C 308.038 63.240,308.194 63.333,308.256 63.333 C 308.371 63.333,309.202 63.966,309.681 64.418 C 309.826 64.555,310.015 64.667,310.102 64.667 C 310.188 64.667,310.378 64.798,310.522 64.958 C 310.667 65.119,310.997 65.400,311.255 65.583 C 311.789 65.962,312.333 66.511,312.333 66.670 C 312.333 66.729,312.521 66.877,312.750 67.000 C 312.979 67.123,313.167 67.323,313.167 67.445 C 313.167 67.567,313.317 67.817,313.500 68.000 C 313.683 68.183,313.833 68.411,313.833 68.505 C 313.833 68.600,313.933 68.715,314.055 68.762 C 314.177 68.809,314.378 69.107,314.503 69.424 C 314.627 69.741,314.784 70.000,314.851 70.000 C 314.918 70.000,315.026 70.244,315.091 70.542 C 315.156 70.840,315.275 71.126,315.356 71.178 C 315.892 71.520,315.875 76.317,315.337 76.667 C 315.266 76.712,315.157 76.987,315.094 77.278 C 315.031 77.568,314.879 77.844,314.756 77.891 C 314.632 77.939,314.481 78.208,314.419 78.489 C 314.357 78.770,314.235 79.000,314.148 79.000 C 314.061 79.000,313.941 79.126,313.883 79.279 C 313.824 79.432,313.673 79.676,313.549 79.821 C 312.094 81.505,310.339 83.333,310.176 83.333 C 310.110 83.333,309.959 83.515,309.840 83.737 C 309.721 83.959,309.448 84.185,309.233 84.239 C 309.019 84.293,308.763 84.486,308.666 84.669 C 308.568 84.851,308.378 85.000,308.244 85.000 C 308.110 85.000,308.000 85.062,308.000 85.139 C 308.000 85.215,307.794 85.383,307.543 85.514 C 307.292 85.644,306.935 85.908,306.751 86.101 C 306.567 86.294,306.192 86.576,305.917 86.728 C 305.131 87.162,304.758 87.405,304.648 87.557 C 304.524 87.725,303.919 88.088,303.292 88.368 C 303.040 88.481,302.833 88.623,302.833 88.683 C 302.833 88.743,302.590 88.893,302.292 89.014 C 301.994 89.136,301.659 89.314,301.547 89.410 C 300.978 89.898,300.839 90.000,300.740 90.000 C 300.497 90.000,298.667 90.913,298.667 91.035 C 298.667 91.107,298.584 91.167,298.483 91.167 C 298.211 91.167,296.333 92.051,296.333 92.180 C 296.333 92.240,295.996 92.385,295.583 92.500 C 295.171 92.615,294.833 92.772,294.833 92.847 C 294.833 92.923,294.571 93.034,294.250 93.094 C 293.929 93.155,293.667 93.255,293.667 93.318 C 293.667 93.381,293.385 93.530,293.042 93.650 C 291.255 94.269,291.135 94.358,291.247 94.996 C 291.405 95.888,291.507 96.167,291.678 96.167 C 291.763 96.167,291.833 96.349,291.833 96.571 C 291.833 96.794,291.934 97.077,292.056 97.199 C 292.179 97.322,292.321 97.609,292.372 97.836 C 292.504 98.430,293.231 100.401,293.354 100.500 C 293.411 100.546,293.511 100.827,293.576 101.125 C 293.640 101.423,293.750 101.667,293.820 101.667 C 293.890 101.667,294.046 102.079,294.167 102.583 C 294.288 103.087,294.450 103.500,294.527 103.500 C 294.604 103.500,294.667 103.612,294.667 103.750 C 294.667 103.889,294.815 104.000,295.000 104.000 C 295.183 104.000,295.333 103.937,295.333 103.860 C 295.333 103.783,295.746 103.627,296.250 103.515 C 296.754 103.402,297.167 103.243,297.167 103.162 C 297.167 103.081,297.429 102.966,297.750 102.906 C 298.071 102.845,298.333 102.730,298.333 102.648 C 298.333 102.567,298.422 102.500,298.531 102.500 C 298.742 102.500,299.448 102.189,301.596 101.151 C 302.336 100.793,303.024 100.500,303.124 100.500 C 303.224 100.500,303.331 100.438,303.361 100.362 C 303.392 100.286,303.904 99.985,304.500 99.693 C 305.767 99.073,307.381 98.174,307.500 98.023 C 307.546 97.964,307.996 97.700,308.500 97.434 C 309.004 97.169,309.535 96.850,309.680 96.726 C 309.825 96.602,309.996 96.500,310.062 96.500 C 310.127 96.500,310.271 96.424,310.382 96.331 C 310.798 95.981,311.854 95.333,312.007 95.333 C 312.095 95.333,312.167 95.266,312.167 95.183 C 312.167 95.056,313.083 94.404,313.562 94.190 C 313.717 94.121,313.867 93.996,314.898 93.078 C 315.255 92.760,315.608 92.500,315.682 92.500 C 315.756 92.500,316.072 92.237,316.384 91.917 C 316.695 91.596,317.006 91.333,317.073 91.333 C 317.255 91.333,320.833 87.694,320.833 87.508 C 320.833 87.421,320.928 87.290,321.043 87.217 C 321.158 87.143,321.474 86.783,321.745 86.417 C 322.016 86.050,322.316 85.659,322.411 85.547 C 322.860 85.020,322.951 84.881,323.175 84.375 C 323.307 84.077,323.469 83.833,323.536 83.833 C 323.655 83.833,324.500 82.166,324.500 81.930 C 324.500 81.864,324.612 81.697,324.750 81.560 C 324.887 81.422,325.000 81.160,325.000 80.976 C 325.000 80.793,325.103 80.539,325.230 80.413 C 325.356 80.287,325.514 79.823,325.580 79.383 C 325.645 78.943,325.767 78.542,325.849 78.491 C 325.931 78.439,326.048 77.821,326.107 77.116 C 326.167 76.410,326.280 75.833,326.358 75.833 C 326.545 75.833,326.543 71.879,326.355 71.764 C 326.276 71.714,326.159 71.147,326.095 70.504 C 326.032 69.860,325.918 69.333,325.842 69.333 C 325.766 69.333,325.651 68.977,325.586 68.542 C 325.521 68.106,325.371 67.563,325.252 67.333 C 325.133 67.104,324.721 66.260,324.337 65.458 C 323.952 64.656,323.588 64.000,323.526 64.000 C 323.465 64.000,323.307 63.756,323.175 63.458 C 322.951 62.952,322.856 62.807,322.410 62.286 C 322.314 62.174,322.125 61.922,321.989 61.725 C 321.307 60.736,318.975 58.167,318.760 58.167 C 318.701 58.167,318.487 58.009,318.285 57.816 C 318.082 57.623,317.729 57.344,317.500 57.195 C 317.271 57.046,317.023 56.829,316.950 56.712 C 316.877 56.596,316.733 56.500,316.631 56.500 C 316.528 56.500,316.326 56.385,316.181 56.245 C 315.664 55.746,314.915 55.167,314.784 55.167 C 314.711 55.167,314.486 54.998,314.284 54.792 C 314.082 54.585,313.720 54.304,313.479 54.167 C 313.239 54.029,312.826 53.749,312.563 53.545 C 311.948 53.069,310.469 51.990,309.985 51.667 C 309.780 51.529,309.474 51.285,309.306 51.125 C 309.138 50.965,308.940 50.833,308.867 50.833 C 308.726 50.833,308.147 50.422,307.676 49.987 C 307.519 49.843,307.266 49.676,307.112 49.617 C 306.959 49.559,306.833 49.438,306.833 49.350 C 306.833 49.261,306.668 49.137,306.466 49.072 C 306.263 49.008,305.817 48.684,305.474 48.353 C 305.131 48.021,304.285 47.225,303.595 46.583 C 302.905 45.942,302.339 45.338,302.337 45.242 C 302.335 45.146,302.112 44.884,301.840 44.659 C 301.569 44.434,301.344 44.175,301.340 44.083 C 301.336 43.992,301.146 43.699,300.916 43.432 C 300.687 43.166,300.500 42.847,300.500 42.724 C 300.500 42.601,300.434 42.500,300.354 42.500 C 300.273 42.500,300.116 42.256,300.005 41.958 C 299.894 41.660,299.698 41.218,299.569 40.974 C 299.439 40.731,299.333 40.337,299.333 40.099 C 299.333 39.861,299.258 39.667,299.167 39.667 C 299.069 39.667,299.000 39.083,299.000 38.250 C 299.000 37.417,299.069 36.833,299.167 36.833 C 299.258 36.833,299.333 36.639,299.333 36.401 C 299.333 36.163,299.439 35.769,299.569 35.526 C 299.698 35.282,299.894 34.840,300.005 34.542 C 300.116 34.244,300.273 34.000,300.354 34.000 C 300.434 34.000,300.500 33.899,300.500 33.776 C 300.500 33.653,300.687 33.334,300.916 33.068 C 301.146 32.801,301.336 32.508,301.340 32.417 C 301.344 32.325,301.569 32.066,301.840 31.841 C 302.112 31.616,302.333 31.364,302.333 31.281 C 302.333 31.115,304.229 29.167,304.391 29.167 C 304.446 29.167,304.829 28.829,305.241 28.417 C 305.654 28.004,306.071 27.667,306.168 27.667 C 306.264 27.667,306.384 27.561,306.434 27.432 C 306.483 27.303,306.738 27.108,307.000 27.000 C 307.262 26.892,307.517 26.697,307.566 26.568 C 307.616 26.439,307.771 26.333,307.911 26.333 C 308.052 26.333,308.167 26.263,308.167 26.178 C 308.167 26.092,308.308 25.978,308.480 25.923 C 308.653 25.868,308.971 25.677,309.189 25.498 C 309.822 24.976,309.891 24.929,310.417 24.667 C 310.692 24.530,310.977 24.323,311.050 24.209 C 311.123 24.094,311.292 24.000,311.425 24.000 C 311.558 24.000,311.667 23.931,311.667 23.847 C 311.667 23.762,311.897 23.643,312.178 23.581 C 312.459 23.519,312.728 23.368,312.775 23.244 C 312.822 23.121,313.080 22.972,313.347 22.914 C 313.615 22.855,313.833 22.753,313.833 22.687 C 313.833 22.621,314.112 22.466,314.452 22.343 C 314.793 22.220,315.165 22.036,315.280 21.935 C 315.863 21.418,316.040 21.321,316.741 21.134 C 317.158 21.022,317.500 20.877,317.500 20.812 C 317.500 20.747,317.725 20.644,318.000 20.583 C 318.275 20.523,318.500 20.416,318.500 20.347 C 318.500 20.277,318.800 20.121,319.167 20.000 C 319.533 19.879,319.833 19.725,319.833 19.659 C 319.833 19.592,320.096 19.488,320.417 19.428 C 320.737 19.367,321.000 19.261,321.000 19.191 C 321.000 19.120,321.384 18.965,321.853 18.844 L 322.705 18.626 322.621 17.876 C 322.574 17.463,322.457 17.076,322.359 17.016 C 322.262 16.956,322.131 16.585,322.068 16.192 C 322.005 15.799,321.852 15.376,321.727 15.251 C 321.602 15.126,321.500 14.874,321.500 14.690 C 321.500 14.507,321.399 14.256,321.276 14.133 C 321.152 14.009,320.997 13.618,320.930 13.263 C 320.864 12.908,320.709 12.460,320.588 12.267 C 320.466 12.074,320.315 11.673,320.253 11.375 C 320.191 11.077,320.079 10.833,320.005 10.833 C 319.931 10.833,319.821 10.571,319.761 10.250 C 319.701 9.929,319.580 9.667,319.492 9.667 C 319.405 9.667,319.333 9.517,319.333 9.333 C 319.333 8.998,318.884 8.917,318.125 9.115 M388.000 14.231 L 388.000 19.500 388.917 19.500 L 389.833 19.500 389.833 17.406 L 389.833 15.312 390.346 15.364 C 390.769 15.408,390.936 15.562,391.304 16.250 C 391.549 16.708,391.806 17.108,391.875 17.139 C 391.944 17.169,392.000 17.275,392.000 17.374 C 392.000 17.472,392.206 17.989,392.458 18.522 L 392.917 19.492 393.958 19.496 C 394.959 19.500,395.000 19.484,395.000 19.083 C 395.000 18.854,394.935 18.667,394.855 18.667 C 394.775 18.667,394.615 18.329,394.500 17.917 C 394.385 17.504,394.233 17.167,394.163 17.167 C 394.093 17.167,393.989 16.979,393.932 16.750 C 393.874 16.521,393.759 16.333,393.677 16.333 C 393.594 16.333,393.476 16.103,393.414 15.822 C 393.352 15.541,393.196 15.270,393.068 15.221 C 392.801 15.119,392.746 14.667,393.000 14.667 C 393.275 14.667,393.818 14.038,393.930 13.588 C 393.989 13.356,394.103 13.167,394.185 13.167 C 394.266 13.167,394.333 12.604,394.333 11.917 C 394.333 11.194,394.263 10.667,394.167 10.667 C 394.075 10.667,393.998 10.573,393.995 10.458 C 393.992 10.344,393.727 9.988,393.406 9.669 L 392.822 9.088 390.411 9.025 L 388.000 8.963 388.000 14.231 M391.870 11.165 C 392.820 12.050,392.104 13.491,390.645 13.631 L 389.833 13.709 389.833 12.165 L 389.833 10.620 390.665 10.719 C 391.170 10.779,391.643 10.954,391.870 11.165 M70.792 17.113 C 70.265 17.152,69.833 17.255,69.833 17.342 C 69.833 17.429,69.574 17.500,69.257 17.500 C 68.425 17.500,66.113 17.853,65.913 18.011 C 65.819 18.085,65.350 18.197,64.871 18.261 C 64.392 18.324,64.000 18.435,64.000 18.506 C 64.000 18.578,63.475 18.725,62.833 18.833 C 62.192 18.942,61.667 19.090,61.667 19.163 C 61.667 19.236,61.389 19.348,61.050 19.412 C 60.711 19.475,60.282 19.634,60.096 19.764 C 59.911 19.894,59.594 20.000,59.391 20.000 C 59.189 20.000,58.911 20.112,58.774 20.250 C 58.636 20.387,58.374 20.500,58.190 20.500 C 58.007 20.500,57.751 20.606,57.622 20.735 C 57.492 20.865,57.074 21.064,56.693 21.178 C 56.312 21.293,56.000 21.441,56.000 21.508 C 56.000 21.576,55.813 21.678,55.583 21.735 C 55.354 21.793,55.167 21.913,55.167 22.003 C 55.167 22.093,55.080 22.167,54.974 22.167 C 54.688 22.167,53.000 22.991,53.000 23.131 C 53.000 23.197,52.756 23.360,52.458 23.492 C 52.160 23.624,51.842 23.793,51.750 23.869 C 51.658 23.944,51.406 24.153,51.189 24.331 C 50.971 24.510,50.653 24.702,50.480 24.756 C 50.308 24.811,50.167 24.926,50.167 25.011 C 50.167 25.097,50.058 25.167,49.925 25.167 C 49.792 25.167,49.623 25.263,49.550 25.381 C 49.477 25.499,49.199 25.762,48.934 25.966 C 48.668 26.170,47.993 26.751,47.434 27.258 C 46.874 27.764,46.342 28.242,46.250 28.319 C 46.158 28.396,45.933 28.669,45.750 28.925 C 45.369 29.458,44.821 30.000,44.663 30.000 C 44.605 30.000,44.450 30.206,44.320 30.457 C 44.190 30.708,43.932 31.065,43.748 31.249 C 43.563 31.433,43.301 31.808,43.165 32.083 C 43.029 32.358,42.823 32.643,42.709 32.717 C 42.594 32.790,42.500 32.951,42.500 33.074 C 42.500 33.197,42.395 33.338,42.266 33.388 C 42.137 33.437,41.981 33.708,41.919 33.989 C 41.857 34.270,41.744 34.500,41.667 34.500 C 41.590 34.500,41.477 34.725,41.417 35.000 C 41.356 35.275,41.241 35.500,41.160 35.500 C 41.079 35.500,40.923 35.800,40.814 36.167 C 40.704 36.533,40.559 36.833,40.492 36.833 C 40.425 36.833,40.319 37.105,40.257 37.437 C 40.195 37.769,40.079 38.163,40.001 38.312 C 39.408 39.434,38.869 42.739,39.066 44.039 L 39.186 44.827 56.826 44.872 C 73.355 44.914,74.485 44.935,74.787 45.208 C 74.965 45.369,75.200 45.500,75.310 45.500 C 75.420 45.500,75.557 45.631,75.614 45.792 C 75.671 45.952,75.837 46.222,75.984 46.392 C 76.216 46.663,76.250 47.419,76.250 52.392 L 76.250 58.083 75.836 58.664 C 74.841 60.060,77.001 59.911,56.968 59.961 L 39.186 60.004 39.074 60.755 C 38.936 61.674,39.124 63.846,39.419 64.750 C 39.538 65.117,39.689 65.679,39.754 66.000 C 39.819 66.321,39.928 66.658,39.996 66.750 C 40.065 66.842,40.172 67.132,40.235 67.395 C 40.298 67.658,40.459 67.982,40.592 68.115 C 40.725 68.248,40.833 68.534,40.833 68.750 C 40.833 68.966,40.942 69.252,41.075 69.385 C 41.208 69.518,41.366 69.823,41.427 70.063 C 41.487 70.303,41.594 70.500,41.665 70.500 C 41.735 70.500,41.893 70.744,42.015 71.042 C 42.138 71.340,42.298 71.658,42.372 71.750 C 42.446 71.842,42.653 72.094,42.831 72.311 C 43.010 72.529,43.202 72.847,43.256 73.020 C 43.311 73.192,43.426 73.333,43.511 73.333 C 43.597 73.333,43.667 73.442,43.667 73.575 C 43.667 73.708,43.761 73.877,43.876 73.950 C 43.991 74.023,44.285 74.351,44.528 74.679 C 45.328 75.753,47.609 77.956,48.966 78.965 C 49.176 79.122,49.555 79.438,49.808 79.667 C 50.060 79.896,50.488 80.196,50.758 80.333 C 51.277 80.597,51.348 80.645,51.984 81.170 C 52.204 81.351,52.474 81.500,52.583 81.500 C 52.693 81.500,52.955 81.650,53.167 81.833 C 53.378 82.017,53.652 82.167,53.776 82.167 C 53.899 82.167,54.000 82.236,54.000 82.320 C 54.000 82.405,54.262 82.561,54.583 82.667 C 54.904 82.773,55.167 82.927,55.167 83.010 C 55.167 83.093,55.354 83.207,55.583 83.265 C 55.813 83.322,56.000 83.436,56.000 83.518 C 56.000 83.600,56.131 83.669,56.292 83.672 C 56.452 83.675,56.958 83.862,57.417 84.087 C 57.875 84.312,58.381 84.498,58.542 84.498 C 58.702 84.499,58.833 84.569,58.833 84.653 C 58.833 84.738,59.059 84.856,59.335 84.917 C 59.611 84.978,60.065 85.141,60.345 85.281 C 60.625 85.420,61.149 85.574,61.510 85.622 C 61.871 85.671,62.167 85.769,62.167 85.841 C 62.167 85.912,62.466 86.021,62.832 86.083 C 63.199 86.145,63.535 86.255,63.580 86.328 C 63.625 86.400,64.262 86.557,64.997 86.676 C 65.732 86.796,66.333 86.947,66.333 87.013 C 66.333 87.079,66.877 87.186,67.542 87.252 C 68.206 87.317,68.825 87.430,68.917 87.502 C 69.693 88.117,84.114 88.105,84.742 87.489 C 84.829 87.403,85.101 87.333,85.346 87.333 C 85.591 87.333,86.026 87.286,86.313 87.229 L 86.833 87.125 86.833 52.489 C 86.833 33.439,86.773 17.816,86.698 17.770 C 86.624 17.724,85.968 17.633,85.240 17.569 C 84.512 17.504,83.865 17.372,83.803 17.275 C 83.688 17.098,72.835 16.963,70.792 17.113 M112.402 18.476 C 112.451 18.555,113.055 18.710,113.745 18.822 C 114.435 18.933,115.000 19.085,115.000 19.160 C 115.000 19.235,115.281 19.349,115.625 19.413 C 115.969 19.477,116.325 19.588,116.417 19.660 C 116.508 19.731,116.977 19.882,117.458 19.995 C 117.940 20.108,118.333 20.259,118.333 20.331 C 118.333 20.404,118.596 20.512,118.917 20.572 C 119.237 20.633,119.500 20.750,119.500 20.834 C 119.500 20.918,119.800 21.077,120.167 21.186 C 120.533 21.296,120.833 21.443,120.833 21.513 C 120.833 21.583,121.058 21.690,121.333 21.750 C 121.608 21.810,121.833 21.923,121.833 22.000 C 121.833 22.078,122.096 22.227,122.417 22.333 C 122.737 22.439,123.000 22.594,123.000 22.676 C 123.000 22.759,123.188 22.874,123.417 22.932 C 123.646 22.989,123.833 23.094,123.833 23.165 C 123.833 23.235,124.053 23.384,124.321 23.495 C 124.590 23.606,124.850 23.803,124.899 23.932 C 124.949 24.061,125.104 24.167,125.245 24.167 C 125.385 24.167,125.500 24.244,125.500 24.337 C 125.500 24.431,125.692 24.581,125.927 24.671 C 126.162 24.760,126.544 25.058,126.776 25.333 C 127.007 25.608,127.269 25.833,127.358 25.833 C 127.447 25.833,127.984 26.316,128.552 26.906 C 129.559 27.953,129.886 28.336,130.465 29.149 C 130.622 29.369,130.881 29.666,131.042 29.811 C 131.202 29.956,131.333 30.135,131.333 30.210 C 131.333 30.332,131.952 31.288,132.168 31.500 C 132.341 31.669,133.167 33.428,133.167 33.627 C 133.167 33.741,133.233 33.833,133.315 33.833 C 133.396 33.833,133.512 34.096,133.572 34.417 C 133.633 34.737,133.747 35.000,133.826 35.000 C 133.905 35.000,134.056 35.544,134.161 36.208 C 134.267 36.873,134.442 37.597,134.551 37.817 C 134.806 38.331,134.816 43.635,134.562 43.802 C 134.466 43.865,134.290 44.498,134.171 45.208 C 134.051 45.919,133.897 46.500,133.828 46.500 C 133.760 46.500,133.656 46.757,133.597 47.071 C 133.538 47.385,133.430 47.667,133.356 47.696 C 133.206 47.757,132.333 49.559,132.333 49.809 C 132.333 49.899,132.277 49.997,132.208 50.028 C 132.056 50.096,131.169 51.442,131.160 51.621 C 131.156 51.692,130.931 51.934,130.660 52.159 C 130.388 52.384,130.167 52.639,130.167 52.725 C 130.167 52.893,126.829 56.187,126.088 56.750 C 125.847 56.933,125.492 57.215,125.299 57.375 C 125.107 57.535,124.846 57.667,124.719 57.667 C 124.593 57.667,124.446 57.779,124.394 57.917 C 124.341 58.054,124.191 58.167,124.060 58.167 C 123.930 58.167,123.781 58.275,123.731 58.406 C 123.680 58.538,123.415 58.695,123.141 58.756 C 122.868 58.816,122.605 58.966,122.558 59.089 C 122.511 59.212,122.253 59.361,121.986 59.420 C 121.719 59.478,121.500 59.584,121.500 59.653 C 121.500 59.723,121.200 59.879,120.833 60.000 C 120.467 60.121,120.167 60.277,120.167 60.347 C 120.167 60.416,119.942 60.523,119.667 60.583 C 119.392 60.644,119.167 60.750,119.167 60.820 C 119.167 60.890,118.754 61.046,118.250 61.167 C 117.746 61.288,117.333 61.446,117.333 61.519 C 117.333 61.592,117.071 61.701,116.750 61.761 C 116.429 61.821,116.167 61.930,116.167 62.003 C 116.167 62.077,115.642 62.230,115.000 62.345 C 114.358 62.460,113.833 62.608,113.833 62.674 C 113.833 62.741,113.421 62.846,112.917 62.909 C 112.412 62.972,112.000 63.094,112.000 63.179 C 112.000 63.264,111.813 63.333,111.583 63.333 L 111.167 63.333 111.167 40.833 L 111.167 18.333 111.740 18.333 C 112.056 18.333,112.353 18.398,112.402 18.476 " stroke="none" fill="#001744" fill-rule="evenodd"></path></g></svg>